<?xml version="1.0" encoding="UTF-8" standalone="no"?>
<svg
   xmlns:dc="http://purl.org/dc/elements/1.1/"
   xmlns:cc="http://creativecommons.org/ns#"
   xmlns:rdf="http://www.w3.org/1999/02/22-rdf-syntax-ns#"
   xmlns:svg="http://www.w3.org/2000/svg"
   xmlns="http://www.w3.org/2000/svg"
   xmlns:sodipodi="http://sodipodi.sourceforge.net/DTD/sodipodi-0.dtd"
   xmlns:inkscape="http://www.inkscape.org/namespaces/inkscape"
   inkscape:version="1.0 (4035a4f, 2020-05-01)"
   sodipodi:docname="survey.svg"
   id="svg855"
   xml:space="preserve"
   enable-background="new 0 0 66 66"
   viewBox="0 0 66 66"
   y="0px"
   x="0px"
   version="1.1"
   fill="#000000"
   width="100px"
   height="100px"><metadata
     id="metadata861"><rdf:RDF><cc:Work
         rdf:about=""><dc:format>image/svg+xml</dc:format><dc:type
           rdf:resource="http://purl.org/dc/dcmitype/StillImage" /></cc:Work></rdf:RDF></metadata><defs
     id="defs859" /><sodipodi:namedview
     inkscape:current-layer="svg855"
     inkscape:window-maximized="1"
     inkscape:window-y="23"
     inkscape:window-x="0"
     inkscape:cy="50"
     inkscape:cx="50"
     inkscape:zoom="5.82"
     showgrid="false"
     id="namedview857"
     inkscape:window-height="855"
     inkscape:window-width="1440"
     inkscape:pageshadow="2"
     inkscape:pageopacity="0"
     guidetolerance="10"
     gridtolerance="10"
     objecttolerance="10"
     borderopacity="1"
     bordercolor="#666666"
     pagecolor="#ffffff" /><path
     style="fill:#8da9c4;fill-opacity:1;stroke:#0b2545;stroke-opacity:1"
     d="M 50.3,1 H 15.7 c -2.1,0 -3.9,1.7 -3.9,3.9 v 56.2 c 0,2.2 1.8,3.9 3.9,3.9 h 34.5 c 2.2,0 3.9,-1.7 3.9,-3.9 V 4.9 C 54.2,2.8 52.4,1 50.3,1 Z M 36.5,5.2 c 0.4,-0.4 1,-0.4 1.4,0 0.4,0.4 0.4,1 0,1.4 -0.4,0.4 -1,0.4 -1.4,0 -0.4,-0.4 -0.4,-1 0,-1.4 z m -4.2,0 c 0.4,-0.4 1,-0.4 1.4,0 0.4,0.4 0.4,1.1 0,1.4 -0.4,0.4 -1,0.4 -1.4,0 -0.4,-0.4 -0.4,-1.1 0,-1.4 z m -4.2,0 c 0.4,-0.4 1,-0.4 1.4,0 0.4,0.4 0.4,1 0,1.4 -0.4,0.4 -1,0.4 -1.4,0 -0.4,-0.4 -0.4,-1.1 0,-1.4 z M 33,62 c -2.1,0 -3.8,-1.7 -3.8,-3.8 0,-2.1 1.7,-3.8 3.8,-3.8 2.1,0 3.8,1.7 3.8,3.8 0,2.1 -1.7,3.8 -3.8,3.8 z M 49.3,50.4 c 0,0.5 -0.5,1 -1,1 H 17.7 c -0.6,0 -1,-0.5 -1,-1 V 9.8 c 0,-0.5 0.4,-1 1,-1 h 30.6 c 0.5,0 1,0.5 1,1 z"
     id="path833" /><path
     style="fill-opacity:1;fill:#134074"
     d="m 21.6,33.2 c 0.4,0.4 1,0.4 1.4,0 l 2.1,-2.1 2.1,2.1 c 0.4,0.4 1,0.4 1.4,0 0.4,-0.4 0.4,-1 0,-1.4 l -2.1,-2.1 2.1,-2.1 c 0.4,-0.4 0.4,-1 0,-1.4 -0.4,-0.4 -1,-0.4 -1.4,0 L 25.1,28.3 23,26.1 c -0.4,-0.4 -1,-0.4 -1.4,0 -0.4,0.4 -0.4,1 0,1.4 l 2.1,2.1 -2.1,2.1 c -0.4,0.5 -0.4,1.1 0,1.5 z"
     id="path835" /><path
     style="fill-opacity:1;fill:#134074"
     d="m 32.7,17.2 h 7 c 0.5,0 1,-0.4 1,-1 0,-0.5 -0.5,-1 -1,-1 h -7 c -0.6,0 -1,0.5 -1,1 0,0.6 0.4,1 1,1 z"
     id="path837" /><path
     style="fill-opacity:1;fill:#134074"
     d="m 43.7,19.2 h -11 c -0.6,0 -1,0.5 -1,1 0,0.6 0.4,1 1,1 h 11 c 0.5,0 1,-0.4 1,-1 0,-0.5 -0.5,-1 -1,-1 z"
     id="path839" /><path
     style="fill-opacity:1;fill:#134074"
     d="m 32.7,40.1 h 7 c 0.5,0 1,-0.5 1,-1 0,-0.5 -0.5,-1 -1,-1 h -7 c -0.6,0 -1,0.5 -1,1 0,0.5 0.4,1 1,1 z"
     id="path841" /><path
     style="fill-opacity:1;fill:#134074"
     d="m 43.7,42.1 h -11 c -0.6,0 -1,0.5 -1,1 0,0.5 0.4,1 1,1 h 11 c 0.5,0 1,-0.5 1,-1 0,-0.5 -0.5,-1 -1,-1 z"
     id="path843" /><path
     style="fill-opacity:1;fill:#134074"
     d="m 28,37.3 h -5.6 c -0.6,0 -1,0.4 -1,1 V 44 c 0,0.5 0.4,1 1,1 H 28 c 0.5,0 1,-0.5 1,-1 V 38.4 C 29,38.1 28.9,37.9 28.7,37.7 28.5,37.4 28.2,37.3 28,37.3 Z"
     id="path845" /><path
     style="fill-opacity:1;fill:#134074"
     d="m 32.7,28.7 h 7 c 0.5,0 1,-0.5 1,-1 0,-0.6 -0.5,-1 -1,-1 h -7 c -0.6,0 -1,0.4 -1,1 0,0.5 0.4,1 1,1 z"
     id="path847" /><path
     style="fill-opacity:1;fill:#134074"
     d="m 43.7,30.7 h -11 c -0.6,0 -1,0.4 -1,1 0,0.5 0.4,1 1,1 h 11 c 0.5,0 1,-0.5 1,-1 0,-0.6 -0.5,-1 -1,-1 z"
     id="path849" /><path
     style="fill-opacity:1;fill:#134074"
     d="M 28.4,15.5 24.8,19 23.1,17.3 c -0.4,-0.4 -1,-0.4 -1.4,0 -0.4,0.4 -0.4,1 0,1.4 l 2.4,2.4 c 0.2,0.2 0.4,0.3 0.7,0.3 0.3,0 0.5,-0.1 0.7,-0.3 l 4.3,-4.3 c 0.4,-0.4 0.4,-1 0,-1.4 -0.4,-0.3 -1.1,-0.3 -1.4,0.1 z"
     id="path851" /></svg>
