<?xml version="1.0" encoding="UTF-8" standalone="no"?>
<svg
   xmlns:dc="http://purl.org/dc/elements/1.1/"
   xmlns:cc="http://creativecommons.org/ns#"
   xmlns:rdf="http://www.w3.org/1999/02/22-rdf-syntax-ns#"
   xmlns:svg="http://www.w3.org/2000/svg"
   xmlns="http://www.w3.org/2000/svg"
   xmlns:sodipodi="http://sodipodi.sourceforge.net/DTD/sodipodi-0.dtd"
   xmlns:inkscape="http://www.inkscape.org/namespaces/inkscape"
   inkscape:version="1.0 (4035a4f, 2020-05-01)"
   sodipodi:docname="training.svg"
   id="svg837"
   xml:space="preserve"
   enable-background="new 0 0 52 52"
   viewBox="0 0 52 52"
   y="0px"
   x="0px"
   version="1.1"
   fill="#000000"
   width="100px"
   height="100px"><metadata
     id="metadata843"><rdf:RDF><cc:Work
         rdf:about=""><dc:format>image/svg+xml</dc:format><dc:type
           rdf:resource="http://purl.org/dc/dcmitype/StillImage" /><dc:title></dc:title></cc:Work></rdf:RDF></metadata><defs
     id="defs841" /><sodipodi:namedview
     inkscape:current-layer="svg837"
     inkscape:window-maximized="1"
     inkscape:window-y="23"
     inkscape:window-x="0"
     inkscape:cy="50"
     inkscape:cx="50"
     inkscape:zoom="6.68"
     showgrid="false"
     id="namedview839"
     inkscape:window-height="1395"
     inkscape:window-width="2560"
     inkscape:pageshadow="2"
     inkscape:pageopacity="0"
     guidetolerance="10"
     gridtolerance="10"
     objecttolerance="10"
     borderopacity="1"
     bordercolor="#666666"
     pagecolor="#ffffff" /><g
     id="g888"><path
       d="m 44.12864,46.55675 c -1.23565,1.96638 -3.80959,2.53557 -5.75293,1.31494 -3.53132,-2.21628 -1.97187,-7.70703 2.2207,-7.70703 1.30714,0 2.51785,0.6535 3.25159,1.56116 0.0045,0.0056 0.01025,0.01001 0.01477,0.01563 1.09472,1.38891 1.20288,3.32354 0.26587,4.8153 z"
       id="path860"
       style="fill:#134074;fill-opacity:1" /><path
       d="m 35.0759,47.12706 c -1.00464,0.4306 -2.04468,0.79041 -3.10669,1.07648 -2.1325,-9.09774 -1.77616,-9.07464 -2.41479,-9.47345 -1.07887,-0.67089 -4.17222,1.21621 -5.53027,2.31445 -0.27222,0.22021 -0.5072,0.3996 -0.73633,0.55896 -2.56199,1.77356 -5.50164,-0.99597 -4.27344,-3.56531 0.97068,-2.03525 2.84384,-1.66658 4.0791,-1.39502 1.99206,0.43642 6.51671,0.98792 6.07813,-1.01172 l -1.97327,-8.8736 7.81604,-1.73773 c 0.28277,3.59969 -1.79771,5.51214 0.38672,8.33398 2.95952,3.82102 8.98458,1.48264 8.76013,-3.22021 -0.13571,-2.83683 -2.12376,-3.07415 -3.32166,-6.41211 l 7.80566,-1.73535 c 1.1084,6.20557 -0.35938,12.51904 -4.09277,17.61426 -4.98503,-4.17307 -12.55807,1.46684 -9.47656,7.52637 z"
       id="path858"
       style="fill:#8da9c4;fill-opacity:1" /><path
       d="m 12.4011,44.53527 c 1.19349,-1.43487 1.71803,-3.38094 1.26953,-5.3335 C 12.7015,34.98427 8.1134,33.44222 4.87278,35.08263 4.43918,34.07824 4.0759,33.03478 3.78879,31.963 l 8.85254,-1.96826 c 0.54362,-0.12024 0.88764,-0.66657 0.75488,-1.21191 -1.02061,-4.1996 -3.46184,-5.05922 -3.5625,-7.05371 -0.13707,-3.46339 4.95542,-4.16801 5.71582,-0.7207 0.35373,1.56936 -1.15775,3.51245 -0.38477,7.37646 0.29101,1.45503 1.72732,0.56321 10.08032,-1.19318 l 1.73987,7.82355 c -2.66462,0.23583 -4.42767,-0.96165 -6.42078,-0.52197 -7.62995,1.72582 -2.67001,14.05999 4.72559,8.10303 0.74487,-0.60095 1.573,-1.2674 2.99048,-1.75946 l 1.73608,7.80243 C 23.85617,49.73693 17.42844,48.21984 12.4011,44.53527 Z"
       id="path856"
       style="fill:#13315c;fill-opacity:1" /><path
       d="M 5.4343,44.12072 C 3.48606,42.90441 2.89231,40.32384 4.11594,38.3634 c 1.83766,-2.99189 6.75573,-2.41438 7.60547,1.28613 0.83518,3.62672 -3.15483,6.43765 -6.28711,4.47119 z"
       id="path854"
       style="fill:#0b2545;fill-opacity:1" /><path
       d="m 7.45774,12.40441 c 5.15464,4.26757 12.43248,-1.61184 9.45996,-7.52637 1.00183,-0.43353 2.04382,-0.79633 3.11279,-1.08386 l 1.96826,8.84167 c 0.44286,1.97808 4.39645,-0.40576 5.95996,-1.67041 5.59007,-4.51732 8.00541,5.93851 0.94727,4.38916 -1.90685,-0.41825 -6.5201,-0.97809 -6.07617,1.01221 l 1.98047,8.87256 c -0.22072,0.04903 -8.31652,1.84731 -7.83008,1.73926 -0.24459,-2.8053 0.98392,-4.3531 0.52148,-6.40576 -1.67937,-7.60393 -14.09646,-2.66006 -8.09961,4.69971 0.59961,0.73676 1.26538,1.55499 1.76453,3.00122 L 6.45359,29.32183 3.35422,30.01086 C 2.24582,23.80577 3.7175,17.49474 7.45774,12.40441 Z"
       id="path852"
       style="fill:#8da9c4;fill-opacity:1" /><path
       d="m 11.40598,3.4757 c 3.21665,0 5.29707,3.57418 3.53223,6.39111 -1.55148,2.46844 -5.0339,2.61408 -6.79297,0.396 C 5.9849,7.57144 7.85421,3.4757 11.40598,3.4757 Z"
       id="path850"
       style="fill:#134074;fill-opacity:1" /><path
       d="m 39.5886,7.45226 c -4.2561,5.12884 1.58051,12.45623 7.53711,9.45947 0.43457,1.00537 0.79688,2.0498 1.08496,3.12256 -8.054,1.88617 -9.96862,1.69647 -9.60742,3.18018 1.20149,4.95429 4.0173,5.01863 3.5127,7.68359 -0.73891,3.91365 -6.61075,2.50409 -5.63672,-1.26563 0.56083,-2.05276 1.23703,-7.26945 -0.84082,-6.7998 l -8.87586,1.97314 -1.74609,-7.82324 c 2.66225,-0.23653 4.42588,0.96106 6.41882,0.52197 5.68403,-1.28567 4.74624,-9.66846 -1.05957,-9.66846 -0.19036,0.0579 -1.33389,-0.31985 -3.67773,1.5752 -0.73633,0.59619 -1.55469,1.2583 -2.97754,1.75049 L 21.9835,3.35893 C 28.15427,2.26616 34.57309,3.778 39.5886,7.45226 Z"
       id="path848"
       style="fill:#13315c;fill-opacity:1" /><path
       d="m 46.55246,7.86535 c 2.40541,1.51135 2.66856,4.97698 0.38281,6.80859 -4.28972,3.39719 -9.50788,-3.11603 -5.20605,-6.5332 1.37878,-1.10103 3.30764,-1.22765 4.82324,-0.27539 z"
       id="path833"
       style="fill:#0b2545;fill-opacity:1" /></g></svg>
